<mxfile host="Electron" modified="2024-02-21T03:45:54.036Z" agent="Mozilla/5.0 (Windows NT 10.0; Win64; x64) AppleWebKit/537.36 (KHTML, like Gecko) draw.io/22.1.18 Chrome/120.0.6099.199 Electron/28.1.2 Safari/537.36" etag="BoXb2vmEWJCJz0-DMM2T" version="22.1.18" type="device">
  <diagram name="Page-1" id="3MYWWQlIpQQtGE3z0re1">
    <mxGraphModel dx="2045" dy="1803" grid="1" gridSize="10" guides="1" tooltips="1" connect="1" arrows="1" fold="1" page="1" pageScale="1" pageWidth="850" pageHeight="1100" math="0" shadow="0">
      <root>
        <mxCell id="0" />
        <mxCell id="1" parent="0" />
        <mxCell id="s8FBlLvCqD2ncgTgmfm9-26" value="" style="group" vertex="1" connectable="0" parent="1">
          <mxGeometry x="-170" y="-430" width="1020" height="660" as="geometry" />
        </mxCell>
        <mxCell id="s8FBlLvCqD2ncgTgmfm9-5" value="" style="group" vertex="1" connectable="0" parent="s8FBlLvCqD2ncgTgmfm9-26">
          <mxGeometry width="1020" height="660" as="geometry" />
        </mxCell>
        <mxCell id="s8FBlLvCqD2ncgTgmfm9-3" value="" style="rounded=0;whiteSpace=wrap;html=1;" vertex="1" parent="s8FBlLvCqD2ncgTgmfm9-5">
          <mxGeometry y="-10" width="1020" height="660" as="geometry" />
        </mxCell>
        <mxCell id="s8FBlLvCqD2ncgTgmfm9-4" value="&lt;font style=&quot;font-size: 18px;&quot;&gt;Master&lt;/font&gt;" style="text;html=1;align=center;verticalAlign=middle;resizable=0;points=[];autosize=1;strokeColor=none;fillColor=none;" vertex="1" parent="s8FBlLvCqD2ncgTgmfm9-5">
          <mxGeometry x="30" y="10" width="80" height="40" as="geometry" />
        </mxCell>
        <mxCell id="s8FBlLvCqD2ncgTgmfm9-6" value="input: - PREADY&lt;br&gt;&lt;span style=&quot;white-space: pre;&quot;&gt;&#x9;&lt;/span&gt;&amp;nbsp; &amp;nbsp;- PRDATA&amp;nbsp;&lt;br&gt;&lt;span style=&quot;white-space: pre;&quot;&gt;&#x9;&lt;/span&gt;- transfer&lt;br&gt;&lt;span style=&quot;white-space: pre;&quot;&gt;&#x9;&lt;/span&gt;&amp;nbsp; &amp;nbsp; &amp;nbsp; &amp;nbsp; &amp;nbsp; &amp;nbsp;- input from cpu" style="text;html=1;align=center;verticalAlign=middle;resizable=0;points=[];autosize=1;strokeColor=#82b366;fillColor=#d5e8d4;" vertex="1" parent="s8FBlLvCqD2ncgTgmfm9-5">
          <mxGeometry x="60" y="120" width="170" height="70" as="geometry" />
        </mxCell>
        <mxCell id="s8FBlLvCqD2ncgTgmfm9-7" value="output: PENABLE&lt;br&gt;&amp;nbsp; &amp;nbsp; &amp;nbsp;PSEL&lt;br&gt;&amp;nbsp; &amp;nbsp; &amp;nbsp; &amp;nbsp; &amp;nbsp;PADDR&lt;br&gt;&amp;nbsp; &amp;nbsp;&amp;nbsp;&lt;span style=&quot;white-space: pre;&quot;&gt;&#x9;&lt;/span&gt;PWRITE&lt;br&gt;&lt;span style=&quot;white-space: pre;&quot;&gt;&#x9;&lt;/span&gt;PWDATA" style="text;html=1;align=center;verticalAlign=middle;resizable=0;points=[];autosize=1;strokeColor=#82b366;fillColor=#d5e8d4;" vertex="1" parent="s8FBlLvCqD2ncgTgmfm9-5">
          <mxGeometry x="680" y="120" width="120" height="90" as="geometry" />
        </mxCell>
        <mxCell id="s8FBlLvCqD2ncgTgmfm9-11" style="edgeStyle=orthogonalEdgeStyle;rounded=0;orthogonalLoop=1;jettySize=auto;html=1;entryX=0.5;entryY=0;entryDx=0;entryDy=0;" edge="1" parent="s8FBlLvCqD2ncgTgmfm9-5" source="s8FBlLvCqD2ncgTgmfm9-8" target="s8FBlLvCqD2ncgTgmfm9-9">
          <mxGeometry relative="1" as="geometry" />
        </mxCell>
        <mxCell id="s8FBlLvCqD2ncgTgmfm9-13" value="transfer" style="edgeLabel;html=1;align=center;verticalAlign=middle;resizable=0;points=[];" vertex="1" connectable="0" parent="s8FBlLvCqD2ncgTgmfm9-11">
          <mxGeometry x="0.0286" y="-1" relative="1" as="geometry">
            <mxPoint as="offset" />
          </mxGeometry>
        </mxCell>
        <mxCell id="s8FBlLvCqD2ncgTgmfm9-8" value="IDLE&lt;br&gt;&lt;b&gt;PSEL &lt;/b&gt;= 0" style="ellipse;whiteSpace=wrap;html=1;" vertex="1" parent="s8FBlLvCqD2ncgTgmfm9-5">
          <mxGeometry x="380" y="160" width="120" height="80" as="geometry" />
        </mxCell>
        <mxCell id="s8FBlLvCqD2ncgTgmfm9-12" style="edgeStyle=orthogonalEdgeStyle;rounded=0;orthogonalLoop=1;jettySize=auto;html=1;entryX=0.5;entryY=0;entryDx=0;entryDy=0;" edge="1" parent="s8FBlLvCqD2ncgTgmfm9-5" source="s8FBlLvCqD2ncgTgmfm9-9" target="s8FBlLvCqD2ncgTgmfm9-10">
          <mxGeometry relative="1" as="geometry" />
        </mxCell>
        <mxCell id="s8FBlLvCqD2ncgTgmfm9-9" value="SETUP&lt;br&gt;&lt;b&gt;PSEL &lt;/b&gt;= 1&lt;br&gt;PENABLE = 0" style="ellipse;whiteSpace=wrap;html=1;" vertex="1" parent="s8FBlLvCqD2ncgTgmfm9-5">
          <mxGeometry x="380" y="310" width="120" height="80" as="geometry" />
        </mxCell>
        <mxCell id="s8FBlLvCqD2ncgTgmfm9-18" style="edgeStyle=orthogonalEdgeStyle;rounded=0;orthogonalLoop=1;jettySize=auto;html=1;entryX=0;entryY=0.5;entryDx=0;entryDy=0;" edge="1" parent="s8FBlLvCqD2ncgTgmfm9-5" source="s8FBlLvCqD2ncgTgmfm9-10" target="s8FBlLvCqD2ncgTgmfm9-8">
          <mxGeometry relative="1" as="geometry">
            <Array as="points">
              <mxPoint x="330" y="500" />
              <mxPoint x="330" y="200" />
            </Array>
          </mxGeometry>
        </mxCell>
        <mxCell id="s8FBlLvCqD2ncgTgmfm9-19" value="PREADY = 1&lt;br&gt;and no transfer" style="edgeLabel;html=1;align=center;verticalAlign=middle;resizable=0;points=[];" vertex="1" connectable="0" parent="s8FBlLvCqD2ncgTgmfm9-18">
          <mxGeometry x="-0.045" relative="1" as="geometry">
            <mxPoint as="offset" />
          </mxGeometry>
        </mxCell>
        <mxCell id="s8FBlLvCqD2ncgTgmfm9-20" style="edgeStyle=orthogonalEdgeStyle;rounded=0;orthogonalLoop=1;jettySize=auto;html=1;entryX=1;entryY=0.5;entryDx=0;entryDy=0;" edge="1" parent="s8FBlLvCqD2ncgTgmfm9-5" source="s8FBlLvCqD2ncgTgmfm9-10" target="s8FBlLvCqD2ncgTgmfm9-9">
          <mxGeometry relative="1" as="geometry">
            <Array as="points">
              <mxPoint x="570" y="500" />
              <mxPoint x="570" y="350" />
            </Array>
          </mxGeometry>
        </mxCell>
        <mxCell id="s8FBlLvCqD2ncgTgmfm9-21" value="PREADY = 1&lt;br&gt;and transfer" style="edgeLabel;html=1;align=center;verticalAlign=middle;resizable=0;points=[];" vertex="1" connectable="0" parent="s8FBlLvCqD2ncgTgmfm9-20">
          <mxGeometry x="0.0828" relative="1" as="geometry">
            <mxPoint as="offset" />
          </mxGeometry>
        </mxCell>
        <mxCell id="s8FBlLvCqD2ncgTgmfm9-10" value="ACCESS&lt;br&gt;&lt;b&gt;PSEL &lt;/b&gt;= 1&lt;br&gt;PENABLE = 1" style="ellipse;whiteSpace=wrap;html=1;" vertex="1" parent="s8FBlLvCqD2ncgTgmfm9-5">
          <mxGeometry x="380" y="460" width="120" height="80" as="geometry" />
        </mxCell>
        <mxCell id="s8FBlLvCqD2ncgTgmfm9-23" value="" style="endArrow=classic;html=1;rounded=0;entryX=0.736;entryY=0.046;entryDx=0;entryDy=0;entryPerimeter=0;" edge="1" parent="s8FBlLvCqD2ncgTgmfm9-5" target="s8FBlLvCqD2ncgTgmfm9-10">
          <mxGeometry width="50" height="50" relative="1" as="geometry">
            <mxPoint x="530" y="500" as="sourcePoint" />
            <mxPoint x="560" y="430" as="targetPoint" />
            <Array as="points">
              <mxPoint x="530" y="464" />
            </Array>
          </mxGeometry>
        </mxCell>
        <mxCell id="s8FBlLvCqD2ncgTgmfm9-25" value="PREADY = 0" style="edgeLabel;html=1;align=center;verticalAlign=middle;resizable=0;points=[];" vertex="1" connectable="0" parent="s8FBlLvCqD2ncgTgmfm9-23">
          <mxGeometry x="-0.512" relative="1" as="geometry">
            <mxPoint as="offset" />
          </mxGeometry>
        </mxCell>
        <mxCell id="s8FBlLvCqD2ncgTgmfm9-16" value="" style="endArrow=classic;html=1;rounded=0;entryX=1;entryY=0.5;entryDx=0;entryDy=0;" edge="1" parent="s8FBlLvCqD2ncgTgmfm9-26" target="s8FBlLvCqD2ncgTgmfm9-8">
          <mxGeometry width="50" height="50" relative="1" as="geometry">
            <mxPoint x="440" y="260" as="sourcePoint" />
            <mxPoint x="620" y="260" as="targetPoint" />
            <Array as="points">
              <mxPoint x="560" y="260" />
              <mxPoint x="560" y="200" />
            </Array>
          </mxGeometry>
        </mxCell>
        <mxCell id="s8FBlLvCqD2ncgTgmfm9-17" value="no transfer" style="edgeLabel;html=1;align=center;verticalAlign=middle;resizable=0;points=[];" vertex="1" connectable="0" parent="s8FBlLvCqD2ncgTgmfm9-16">
          <mxGeometry x="0.3" y="-2" relative="1" as="geometry">
            <mxPoint as="offset" />
          </mxGeometry>
        </mxCell>
      </root>
    </mxGraphModel>
  </diagram>
</mxfile>
